<svg width="36" height="36" viewBox="0 0 36 36" fill="none" xmlns="http://www.w3.org/2000/svg">
<path d="M3 7.5C3 7.10218 3.15804 6.72064 3.43934 6.43934C3.72064 6.15804 4.10218 6 4.5 6H31.5C31.8978 6 32.2794 6.15804 32.5607 6.43934C32.842 6.72064 33 7.10218 33 7.5V28.5C33 28.8978 32.842 29.2794 32.5607 29.5607C32.2794 29.842 31.8978 30 31.5 30H4.5C4.10218 30 3.72064 29.842 3.43934 29.5607C3.15804 29.2794 3 28.8978 3 28.5V7.5Z" stroke="#FF7F50" stroke-width="4" stroke-linejoin="round"/>
<path d="M27 6V30M9 6V30M28.5 13.5H33M28.5 22.5H33M3 13.5H7.5M3 12V15M6.75 6H11.25M6.75 30H11.25M24.75 6H29.25M24.75 30H29.25M3 22.5H7.5M3 21V24M33 21V24M33 12V15" stroke="#FF7F50" stroke-width="4" stroke-linecap="round" stroke-linejoin="round"/>
<path d="M15.75 14.25L21.75 18L15.75 21.75V14.25Z" stroke="#FF7F50" stroke-width="4" stroke-linejoin="round"/>
</svg>
