<svg width="36" height="36" viewBox="0 0 36 36" fill="none" xmlns="http://www.w3.org/2000/svg">
<path d="M6 30C5.175 30 4.469 29.7065 3.882 29.1195C3.295 28.5325 3.001 27.826 3 27V6C3 5.175 3.294 4.469 3.882 3.882C4.47 3.295 5.176 3.001 6 3H19.5C20.325 3 21.0315 3.294 21.6195 3.882C22.2075 4.47 22.501 5.176 22.5 6V12.075C21.975 12.125 21.4625 12.219 20.9625 12.357C20.4625 12.495 19.975 12.6635 19.5 12.8625V6H6V27H12V30H6ZM12 25.4625V24C12 23.725 12.0065 23.4565 12.0195 23.1945C12.0325 22.9325 12.0635 22.6635 12.1125 22.3875C11.6375 22.2625 11.25 22 10.95 21.6C10.65 21.2 10.5 20.75 10.5 20.25C10.5 19.625 10.719 19.094 11.157 18.657C11.595 18.22 12.126 18.001 12.75 18C12.875 18 13 18.0125 13.125 18.0375C13.25 18.0625 13.375 18.1 13.5 18.15C13.75 17.7 14.0315 17.269 14.3445 16.857C14.6575 16.445 14.9885 16.051 15.3375 15.675C14.9625 15.45 14.5565 15.2815 14.1195 15.1695C13.6825 15.0575 13.226 15.001 12.75 15C11.3 15 10.0625 15.5125 9.0375 16.5375C8.0125 17.5625 7.5 18.8 7.5 20.25C7.5 21.6 7.9315 22.7565 8.7945 23.7195C9.6575 24.6825 10.726 25.2635 12 25.4625ZM12.75 12.75C13.375 12.75 13.9065 12.5315 14.3445 12.0945C14.7825 11.6575 15.001 11.126 15 10.5C14.999 9.874 14.7805 9.343 14.3445 8.907C13.9085 8.471 13.377 8.252 12.75 8.25C12.123 8.248 11.592 8.467 11.157 8.907C10.722 9.347 10.503 9.878 10.5 10.5C10.497 11.122 10.716 11.6535 11.157 12.0945C11.598 12.5355 12.129 12.754 12.75 12.75ZM21 33H18C17.175 33 16.469 32.7065 15.882 32.1195C15.295 31.5325 15.001 30.826 15 30V24C15 21.5 15.875 19.375 17.625 17.625C19.375 15.875 21.5 15 24 15C26.5 15 28.625 15.875 30.375 17.625C32.125 19.375 33 21.5 33 24V30C33 30.825 32.7065 31.5315 32.1195 32.1195C31.5325 32.7075 30.826 33.001 30 33H27V25.5H30.75V24C30.75 22.125 30.094 20.5315 28.782 19.2195C27.47 17.9075 25.876 17.251 24 17.25C22.124 17.249 20.5305 17.9055 19.2195 19.2195C17.9085 20.5335 17.252 22.127 17.25 24V25.5H21V33Z" fill="#FF7F50"/>
</svg>
