<svg width="49" height="48" viewBox="0 0 49 48" fill="none" xmlns="http://www.w3.org/2000/svg">
<path d="M4.34927 8.86133H43.9333V34.3909H4.34927V8.86133Z" fill="#466D77"/>
<path d="M7.01117 11.5349H41.2714V31.7162H7.01117V11.5349Z" fill="#E6E6E6"/>
<path d="M28.3119 11.5349L14.4735 31.7168H8.67834L22.5167 11.5349H28.3119ZM34.9407 11.5349L21.1018 31.7168H17.3338L31.1722 11.5349H34.9407Z" fill="white"/>
<path d="M33.4095 37.681H14.8725C13.2506 37.681 11.9359 39.0026 11.9359 40.632H36.3461C36.3466 39.0026 35.0314 37.681 33.4095 37.681Z" fill="#466D77"/>
<path d="M17.2586 34.3904H31.0245V37.6816H17.2586V34.3904Z" fill="#466D77"/>
<path d="M43.9333 8.16956H10.8922C10.512 8.16956 10.2037 8.47889 10.2037 8.86076C10.2037 9.24262 10.512 9.55249 10.8922 9.55249H43.2453V33.6986H5.03782V9.55302H8.81168C9.19195 9.55302 9.50022 9.24316 9.50022 8.86129C9.50022 8.47942 9.19195 8.16956 8.81168 8.16956H4.34929C3.96955 8.16956 3.66129 8.47889 3.66129 8.86129V34.3909C3.66129 34.7722 3.96955 35.0821 4.34982 35.0821H16.5711V36.9898H14.873C12.8741 36.9898 11.2485 38.624 11.2485 40.6325C11.2485 41.0138 11.5568 41.3237 11.937 41.3237H36.3471C36.7274 41.3237 37.0351 41.0138 37.0351 40.6325C37.0351 38.624 35.409 36.9898 33.4101 36.9898H31.7125V35.0821H43.9333C44.3135 35.0821 44.6213 34.7722 44.6213 34.3909V8.86129C44.6213 8.47889 44.313 8.16956 43.9333 8.16956ZM35.5498 39.9408H12.7322C12.8773 39.4867 13.1627 39.0903 13.5472 38.8087C13.9318 38.527 14.3958 38.3746 14.8725 38.3733H33.4095C33.8863 38.3743 34.3504 38.5267 34.735 38.8084C35.1196 39.0901 35.4049 39.4866 35.5498 39.9408ZM30.3354 36.9898H17.9472V35.0826H30.3359V36.9898H30.3354Z" fill="#151515"/>
<path d="M41.272 25.3408C41.6522 25.3408 41.96 25.0315 41.96 24.6491V11.5355C41.96 11.1536 41.6522 10.8438 41.272 10.8438H7.01062C6.63035 10.8438 6.32208 11.1536 6.32208 11.5355V31.7168C6.32208 32.0982 6.63035 32.408 7.01062 32.408H41.272C41.6522 32.408 41.96 32.0982 41.96 31.7168V26.8624C41.96 26.48 41.6522 26.1707 41.272 26.1707C40.8917 26.1707 40.5834 26.48 40.5834 26.8624V31.0251H7.69915V12.2267H40.5834V24.6491C40.5834 25.0315 40.8917 25.3408 41.272 25.3408Z" fill="#151515"/>
<path d="M18.849 27.6965C19.2288 27.6965 19.537 27.3867 19.537 27.0048V16.9387H22.1525C22.5328 16.9387 22.841 16.6288 22.841 16.2469C22.841 15.8651 22.5328 15.5552 22.1525 15.5552H15.4234C15.0432 15.5552 14.7349 15.8651 14.7349 16.2469C14.7349 16.6288 15.0432 16.9387 15.4234 16.9387H18.161V27.0053C18.161 27.3867 18.4693 27.6965 18.849 27.6965ZM26.3392 18.1392L25.5504 16.0059C25.5192 15.9209 25.4715 15.8429 25.4101 15.7764C25.3487 15.71 25.2748 15.6562 25.1926 15.6184C25.1104 15.5805 25.0215 15.5593 24.9311 15.5558C24.8406 15.5524 24.7504 15.5669 24.6656 15.5984C24.4942 15.663 24.3554 15.7927 24.2795 15.9593C24.2035 16.1259 24.1966 16.3158 24.2602 16.4875L25.049 18.6203C25.1123 18.7915 25.241 18.9307 25.4068 19.0071C25.5726 19.0835 25.762 19.0909 25.9333 19.0277C26.1047 18.9634 26.2436 18.8338 26.3197 18.6673C26.3957 18.5007 26.4027 18.3109 26.3392 18.1392ZM28.2373 27.2459C28.3376 27.5168 28.5946 27.6965 28.8821 27.6965C29.1696 27.6965 29.4266 27.5168 29.5269 27.2459L33.504 16.4875C33.6362 16.1296 33.4549 15.7317 33.0986 15.5984C32.7424 15.4651 32.3461 15.648 32.2138 16.0059L28.8821 25.0187L26.9749 19.8581C26.9436 19.7732 26.8959 19.6953 26.8345 19.6288C26.7731 19.5624 26.6992 19.5087 26.617 19.4708C26.5348 19.433 26.446 19.4117 26.3556 19.4083C26.2652 19.4048 26.1749 19.4192 26.0901 19.4507C25.9187 19.5151 25.7797 19.6448 25.7037 19.8114C25.6276 19.978 25.6206 20.168 25.6842 20.3397L28.2373 27.2459Z" fill="#151515"/>
</svg>
