<svg width="30" height="29" viewBox="0 0 30 29" fill="none" xmlns="http://www.w3.org/2000/svg">
<rect x="0.0135498" width="29.0135" height="29" rx="14.5" fill="#010309"/>
<g clip-path="url(#clip0_1564_27)">
<path d="M14.5229 11.5678C12.8753 11.5678 11.5464 12.8754 11.5464 14.4964C11.5464 16.1175 12.8753 17.425 14.5229 17.425C16.1704 17.425 17.4994 16.1175 17.4994 14.4964C17.4994 12.8754 16.1704 11.5678 14.5229 11.5678ZM14.5229 16.4004C13.4582 16.4004 12.5878 15.5466 12.5878 14.4964C12.5878 13.4463 13.4556 12.5925 14.5229 12.5925C15.5902 12.5925 16.458 13.4463 16.458 14.4964C16.458 15.5466 15.5876 16.4004 14.5229 16.4004ZM18.3154 11.448C18.3154 11.8278 18.0045 12.1311 17.6211 12.1311C17.2351 12.1311 16.9269 11.8253 16.9269 11.448C16.9269 11.0708 17.2377 10.765 17.6211 10.765C18.0045 10.765 18.3154 11.0708 18.3154 11.448ZM20.2867 12.1413C20.2427 11.2263 20.0303 10.4158 19.349 9.74798C18.6703 9.08018 17.8465 8.87118 16.9165 8.8253C15.958 8.77177 13.0852 8.77177 12.1267 8.8253C11.1993 8.86863 10.3755 9.07763 9.6942 9.74543C9.0129 10.4132 8.80307 11.2237 8.75644 12.1388C8.70204 13.0818 8.70204 15.9085 8.75644 16.8516C8.80048 17.7666 9.0129 18.5771 9.6942 19.2449C10.3755 19.9127 11.1967 20.1217 12.1267 20.1676C13.0852 20.2211 15.958 20.2211 16.9165 20.1676C17.8465 20.1243 18.6703 19.9152 19.349 19.2449C20.0277 18.5771 20.2401 17.7666 20.2867 16.8516C20.3411 15.9085 20.3411 13.0844 20.2867 12.1413ZM19.0485 17.8634C18.8464 18.363 18.4552 18.7479 17.9449 18.9492C17.1807 19.2475 15.3674 19.1786 14.5229 19.1786C13.6784 19.1786 11.8624 19.2449 11.1008 18.9492C10.5931 18.7504 10.2019 18.3656 9.99728 17.8634C9.6942 17.1115 9.76414 15.3274 9.76414 14.4964C9.76414 13.6655 9.69679 11.8788 9.99728 11.1294C10.1993 10.6299 10.5905 10.245 11.1008 10.0436C11.865 9.74543 13.6784 9.81425 14.5229 9.81425C15.3674 9.81425 17.1833 9.74798 17.9449 10.0436C18.4527 10.2424 18.8438 10.6273 19.0485 11.1294C19.3516 11.8813 19.2816 13.6655 19.2816 14.4964C19.2816 15.3274 19.3516 17.1141 19.0485 17.8634Z" fill="white"/>
</g>
<defs>
<clipPath id="clip0_1564_27">
<rect width="11.6054" height="13.05" fill="white" transform="translate(8.71759 7.97461)"/>
</clipPath>
</defs>
</svg>
