<svg width="30" height="29" viewBox="0 0 30 29" fill="none" xmlns="http://www.w3.org/2000/svg">
<rect x="0.0270996" width="29.0135" height="29" rx="14.5" fill="#010309"/>
<g clip-path="url(#clip0_1564_30)">
<path d="M19.7199 11.9756C19.7281 12.0876 19.7281 12.1995 19.7281 12.3115C19.7281 15.7259 17.0358 19.6601 12.1148 19.6601C10.5988 19.6601 9.19046 19.2363 8.0058 18.5006C8.2212 18.5246 8.42829 18.5326 8.65198 18.5326C9.90289 18.5326 11.0544 18.1248 11.974 17.4291C10.7976 17.4051 9.81178 16.6615 9.47212 15.6379C9.63782 15.6619 9.80349 15.6779 9.97748 15.6779C10.2177 15.6779 10.458 15.6459 10.6816 15.59C9.45557 15.3501 8.53597 14.3106 8.53597 13.0551V13.0232C8.89219 13.2151 9.30644 13.335 9.74548 13.351C9.02474 12.8872 8.55255 12.0956 8.55255 11.2C8.55255 10.7202 8.68507 10.2804 8.91705 9.89658C10.2343 11.4639 12.2142 12.4874 14.4344 12.5993C14.393 12.4074 14.3681 12.2075 14.3681 12.0076C14.3681 10.5843 15.5611 9.4248 17.044 9.4248C17.8144 9.4248 18.5103 9.73666 18.9991 10.2404C19.6038 10.1285 20.1837 9.91257 20.6974 9.61672C20.4985 10.2165 20.076 10.7202 19.521 11.0401C20.0595 10.9841 20.5814 10.8401 21.0619 10.6403C20.6974 11.152 20.2418 11.6078 19.7199 11.9756Z" fill="white"/>
</g>
<defs>
<clipPath id="clip0_1564_30">
<rect width="13.0561" height="10.875" fill="white" transform="translate(8.0058 9.4248)"/>
</clipPath>
</defs>
</svg>
