<svg width="36" height="28" viewBox="0 0 36 28" fill="none" xmlns="http://www.w3.org/2000/svg">
<path d="M32.0625 0.724519C31.6757 0.474278 31.2333 0.322888 30.7743 0.283655C30.3153 0.244422 29.8537 0.318549 29.43 0.499519L15.5475 5.96702C15.2188 6.10078 14.8673 6.16955 14.5125 6.16952H5.625C4.87908 6.16952 4.16371 6.46583 3.63626 6.99328C3.10882 7.52073 2.8125 8.2361 2.8125 8.98202V9.20702H0V15.957H2.8125V16.2495C2.83012 16.9837 3.1342 17.6818 3.65975 18.1948C4.1853 18.7077 4.89063 18.9947 5.625 18.9945L9 26.1495C9.22853 26.6313 9.58833 27.0389 10.0381 27.3255C10.4878 27.612 11.0092 27.766 11.5425 27.7695H12.96C13.702 27.7636 14.4116 27.4646 14.9342 26.9378C15.4568 26.411 15.75 25.6991 15.75 24.957V19.2645L29.43 24.732C29.7665 24.8659 30.1254 24.9346 30.4875 24.9345C31.0493 24.9255 31.5965 24.7535 32.0625 24.4395C32.4326 24.1896 32.7378 23.8553 32.953 23.464C33.1682 23.0727 33.2872 22.6359 33.3 22.1895V3.04202C33.2979 2.58418 33.1841 2.13377 32.9685 1.72989C32.7528 1.32602 32.4418 0.980907 32.0625 0.724519ZM12.9375 8.98202V16.2495H5.625V8.98202H12.9375ZM12.9375 24.957H11.52L8.7525 18.9945H12.9375V24.957ZM16.5825 16.587C16.3154 16.4505 16.0368 16.3376 15.75 16.2495V8.82452C16.034 8.76591 16.3126 8.68311 16.5825 8.57702L30.4875 3.04202V22.122L16.5825 16.587ZM33.3675 9.76952V15.3945C34.1134 15.3945 34.8288 15.0982 35.3562 14.5708C35.8837 14.0433 36.18 13.3279 36.18 12.582C36.18 11.8361 35.8837 11.1207 35.3562 10.5933C34.8288 10.0658 34.1134 9.76952 33.3675 9.76952Z" fill="white"/>
</svg>
