<svg width="31" height="35" viewBox="0 0 31 35" fill="none" xmlns="http://www.w3.org/2000/svg">
<path d="M10 17C14.1422 17 17.5 13.6422 17.5 9.5C17.5 5.35775 14.1422 2 10 2C5.85775 2 2.5 5.35775 2.5 9.5C2.5 13.6422 5.85775 17 10 17Z" stroke="white" stroke-width="4" stroke-linejoin="round"/>
<path d="M17.5002 10.4014C17.5107 10.4119 21.0424 14.8534 28.0947 23.7244C28.2142 23.8682 28.2756 24.0514 28.267 24.2381C28.2584 24.4249 28.1804 24.6017 28.0482 24.7339L24.9852 27.7969C24.853 27.929 24.6762 28.0071 24.4895 28.0157C24.3027 28.0243 24.1195 27.9628 23.9757 27.8434L11.3667 16.9999M17.8527 17.3524L19.9744 19.4741" stroke="white" stroke-width="4" stroke-linecap="round" stroke-linejoin="round"/>
<path d="M10.75 32.0647C12.1878 30.1912 13.9352 29.2545 15.9925 29.2545C19.0795 29.2545 22.7222 33.132 25.8295 32.5987C28.9375 32.0647 29.827 29.0002 27.9145 27.3037" stroke="white" stroke-width="4" stroke-linecap="round" stroke-linejoin="round"/>
</svg>
